# xmcd
#
# Track frame offsets: 
#        182
#        13920
#        30450
#        46095
#        70955
#        87375
#        103720
#        116670
#        145620
#        163050
#        190345
#        207345
#
# Disc length: 3102 seconds
#
# Revision: 0
# Processed by: cddbd v1.5.2PL0 Copyright (c) Steve Scherf et al.
# Submitted via: ExactAudioCopy v0.95b3
#
DISCID=a40c1c0c
DTITLE=John Weston - I'm Doin' The Best I Can
DYEAR=1996
DGENRE=Blues
TTITLE0=She's Too Mean
TTITLE1=Blue Party
TTITLE2=Rainy Weather Blues
TTITLE3=I Couldn't Help But Cry
TTITLE4=Puppy Love
TTITLE5=About Money
TTITLE6=What A Figure
TTITLE7=I'm Doin' The Best I Can
TTITLE8=I'm Still Unhappy
TTITLE9=Instead Of Drinkin'
TTITLE10=My Louise
TTITLE11=I'm So Lonely
EXTD=
EXTT0=
EXTT1=
EXTT2=
EXTT3=
EXTT4=
EXTT5=
EXTT6=
EXTT7=
EXTT8=
EXTT9=
EXTT10=
EXTT11=
PLAYORDER=
